<svg width="275" height="22" viewBox="0 0 275 22" fill="none" xmlns="http://www.w3.org/2000/svg">
<path fill-rule="evenodd" clip-rule="evenodd" d="M16.715 15.2922L13.754 13.7432C12.767 13.2222 12.733 13.5642 11.696 14.6402C11.445 14.9012 10.977 15.5852 10.425 15.4552C9.27096 15.1782 7.11196 13.5322 6.40996 12.7822C6.07496 12.4232 4.63696 10.7122 4.61996 10.1582C4.58596 9.31123 6.49296 8.88723 5.87396 7.27423L4.55296 4.38923C3.31496 1.61823 -0.148041 6.05122 0.136959 8.12122C0.872959 13.2222 10.057 21.4682 15.176 18.7472C16.313 18.1272 17.852 15.9602 16.715 15.2922Z" fill="#F96400"/>
<path fill-rule="evenodd" clip-rule="evenodd" d="M39 19L35 16L32 19V14L40 6L29.386 11.789L27 10L43 3L39 19Z" fill="#24AFFF"/>
<g clip-path="url(#clip0)">
<path fill-rule="evenodd" clip-rule="evenodd" d="M68.8331 11.443C68.7271 11.551 68.5781 11.606 68.3921 11.606L68.3731 11.605C67.7791 11.594 67.7701 11.055 67.7651 10.795C67.7641 10.723 67.7631 10.654 67.7561 10.597C67.3251 7.279 65.7701 5.719 62.3881 5.212C62.3401 5.205 62.2821 5.201 62.2211 5.197C61.9681 5.179 61.4431 5.141 61.4741 4.613C61.4881 4.384 61.5931 4 62.1481 4C62.2111 4 62.2731 4.004 62.3281 4.008C62.3731 4.011 62.4161 4.014 62.4501 4.014C62.4721 4.014 62.4851 4.012 62.4911 4.011C62.5051 4.01 62.5191 4.009 62.5341 4.009C66.0161 4.124 69.0341 7.202 68.9901 10.596C68.9901 10.641 68.9921 10.693 68.9951 10.749C69.0051 10.974 69.0181 11.254 68.8331 11.443ZM62.7281 7.893C63.2491 7.88 63.8221 8.145 64.2971 8.615C64.7701 9.083 65.0491 9.671 65.0421 10.189C65.0591 10.685 64.8741 10.959 64.4901 11.003C64.4661 11.006 64.4421 11.008 64.4191 11.008C64.1001 11.008 63.8521 10.757 63.8151 10.398C63.7361 9.629 63.3411 9.214 62.5711 9.094C62.3591 9.061 62.1251 9 62.0041 8.802C61.9211 8.667 61.9131 8.502 61.9801 8.313C62.1231 7.907 62.5321 7.897 62.7281 7.893ZM61.8171 6.892C61.7241 6.77 61.6941 6.613 61.7261 6.427C61.7591 6.235 61.8841 5.914 62.3541 5.914C62.4731 5.914 62.5901 5.933 62.7031 5.951C62.7561 5.96 62.8061 5.967 62.8511 5.973C65.1431 6.241 66.9931 8.18 66.9751 10.294C66.9751 10.304 66.9741 10.314 66.9721 10.324C66.9671 10.362 66.9691 10.42 66.9711 10.481C66.9791 10.698 66.9951 11.15 66.4871 11.225C66.4361 11.233 66.3871 11.237 66.3411 11.237C65.7951 11.237 65.7651 10.742 65.7501 10.505C65.7461 10.441 65.7421 10.381 65.7341 10.333C65.3951 8.345 64.7021 7.64 62.6421 7.192C62.5911 7.181 62.5301 7.173 62.4661 7.164C62.2461 7.135 61.9721 7.098 61.8171 6.892ZM62.0301 14.404C62.2251 14.49 62.4031 14.533 62.5601 14.533C62.8261 14.533 63.0411 14.406 63.2181 14.144C63.6191 13.554 64.1041 13.254 64.6611 13.254C65.0741 13.254 65.5121 13.416 65.9991 13.749C66.0771 13.802 66.1561 13.856 66.2351 13.909C66.6151 14.167 67.0071 14.434 67.3771 14.723C67.4461 14.778 67.5211 14.833 67.5921 14.887C68.1371 15.291 68.8131 15.795 68.4431 16.815C68.0191 17.979 66.6421 19 65.4941 19H65.4751C65.4541 19 65.4341 18.997 65.4141 18.992C65.3781 18.982 65.3281 18.971 65.2711 18.959C65.1021 18.922 64.8721 18.872 64.6521 18.779C62.2121 17.757 60.1061 16.395 58.3921 14.733C56.6421 13.034 55.2541 10.977 54.2661 8.616C53.9251 7.8 53.9111 7.015 54.2251 6.347C54.5511 5.655 55.2041 5.132 56.1141 4.834C56.4751 4.716 56.8271 4.717 57.1621 4.837C57.9541 5.121 59.8321 7.615 59.8781 8.444C59.9191 9.174 59.3431 9.555 59.0331 9.76C58.4871 10.121 58.3871 10.565 58.6971 11.243C59.3381 12.647 60.4601 13.71 62.0301 14.404Z" fill="#662D91"/>
</g>
<path fill-rule="evenodd" clip-rule="evenodd" d="M96.266 12.717C96.329 12.316 96.363 11.906 96.363 11.487C96.363 7.137 92.837 3.611 88.487 3.611C88.069 3.611 87.658 3.646 87.258 3.708C86.533 3.26 85.676 3 84.759 3C82.13 3 80 5.131 80 7.759C80 8.676 80.26 9.532 80.708 10.259C80.646 10.66 80.612 11.069 80.612 11.487C80.612 15.837 84.138 19.362 88.487 19.362C88.904 19.362 89.316 19.33 89.716 19.267C90.442 19.715 91.298 19.975 92.215 19.975C94.844 19.975 96.975 17.844 96.975 15.215C96.975 14.298 96.715 13.443 96.266 12.717ZM92.226 15.069C91.893 15.549 91.404 15.924 90.764 16.193C90.123 16.463 89.366 16.598 88.491 16.598C87.443 16.598 86.575 16.414 85.89 16.044C85.404 15.779 85.009 15.423 84.706 14.979C84.401 14.535 84.247 14.1 84.247 13.676C84.247 13.426 84.342 13.208 84.528 13.031C84.716 12.853 84.957 12.763 85.243 12.763C85.476 12.763 85.677 12.833 85.84 12.973C86.002 13.112 86.139 13.315 86.25 13.582C86.383 13.892 86.528 14.151 86.682 14.358C86.835 14.562 87.051 14.732 87.33 14.865C87.606 14.999 87.974 15.066 88.433 15.066C89.063 15.066 89.571 14.93 89.961 14.661C90.352 14.39 90.54 14.061 90.54 13.662C90.54 13.345 90.438 13.092 90.23 12.895C90.021 12.696 89.75 12.544 89.414 12.438C89.077 12.332 88.624 12.218 88.057 12.098C87.295 11.932 86.657 11.739 86.141 11.516C85.624 11.293 85.213 10.988 84.908 10.603C84.602 10.214 84.45 9.73 84.45 9.157C84.45 8.611 84.611 8.122 84.933 7.697C85.255 7.271 85.72 6.945 86.328 6.718C86.933 6.49 87.646 6.377 88.462 6.377C89.115 6.377 89.68 6.452 90.158 6.602C90.634 6.754 91.032 6.954 91.349 7.204C91.665 7.454 91.897 7.718 92.044 7.995C92.191 8.273 92.265 8.544 92.265 8.809C92.265 9.055 92.17 9.278 91.984 9.474C91.798 9.669 91.561 9.769 91.283 9.768C91.033 9.768 90.836 9.711 90.7 9.588C90.568 9.47 90.428 9.282 90.278 9.02C90.087 8.653 89.859 8.368 89.594 8.164C89.336 7.964 88.91 7.86 88.317 7.861C87.768 7.861 87.329 7.973 86.998 8.192C86.665 8.415 86.506 8.673 86.505 8.976C86.505 9.166 86.56 9.326 86.67 9.463C86.781 9.601 86.936 9.72 87.136 9.821C87.335 9.924 87.538 10.003 87.742 10.06C87.948 10.118 88.29 10.203 88.765 10.315C89.362 10.443 89.903 10.587 90.389 10.743C90.874 10.901 91.288 11.09 91.63 11.316C91.975 11.542 92.244 11.829 92.437 12.176C92.631 12.524 92.727 12.948 92.727 13.448C92.728 14.049 92.56 14.59 92.226 15.069Z" fill="#24AFFF"/>
<path fill-rule="evenodd" clip-rule="evenodd" d="M117.26 19.739C115.782 19.739 114.321 19.375 113.029 18.684L108.308 20.185C108.284 20.192 108.26 20.196 108.236 20.196C108.174 20.196 108.113 20.171 108.068 20.125C108.005 20.061 107.984 19.968 108.013 19.884L109.548 15.356C108.746 14 108.322 12.452 108.322 10.87C108.322 5.979 112.332 2 117.259 2C122.187 2 126.196 5.979 126.196 10.87C126.196 15.76 122.187 19.739 117.26 19.739ZM117.259 3.847C113.356 3.847 110.18 6.998 110.18 10.87C110.18 12.358 110.646 13.782 111.528 14.986C111.574 15.048 111.586 15.129 111.561 15.202L110.798 17.454L113.163 16.703C113.186 16.695 113.211 16.691 113.235 16.691C113.28 16.691 113.325 16.705 113.364 16.73C114.522 17.49 115.869 17.891 117.259 17.891C121.162 17.891 124.338 14.742 124.338 10.87C124.338 6.998 121.162 3.847 117.259 3.847ZM120.109 15.105L120.044 15.112C119.941 15.122 119.825 15.133 119.68 15.133C119.334 15.133 118.726 15.074 117.441 14.561C116.107 14.028 114.79 12.885 113.734 11.343C113.716 11.316 113.704 11.298 113.697 11.288C113.421 10.925 112.779 9.969 112.779 8.958C112.779 7.833 113.317 7.194 113.635 6.993C113.935 6.804 114.614 6.715 114.738 6.71C114.841 6.705 114.816 6.705 114.841 6.705C115.103 6.705 115.293 6.865 115.436 7.208C115.495 7.35 116.056 8.701 116.087 8.764C116.125 8.839 116.243 9.071 116.105 9.346L116.075 9.406C116.019 9.521 115.97 9.62 115.86 9.748C115.824 9.789 115.789 9.832 115.753 9.875C115.677 9.967 115.599 10.061 115.526 10.132C115.502 10.157 115.454 10.205 115.449 10.224C115.449 10.224 115.45 10.24 115.471 10.276C115.619 10.527 116.699 12.014 118.122 12.632C118.184 12.659 118.39 12.743 118.401 12.743C118.415 12.743 118.437 12.721 118.453 12.703C118.577 12.563 118.978 12.094 119.111 11.897C119.228 11.721 119.378 11.632 119.557 11.632C119.667 11.632 119.77 11.666 119.866 11.7C120.102 11.785 121.429 12.438 121.464 12.455C121.638 12.539 121.775 12.605 121.855 12.736C121.971 12.928 121.925 13.459 121.75 13.944C121.528 14.561 120.553 15.066 120.109 15.105Z" fill="#39B54A"/>
<path fill-rule="evenodd" clip-rule="evenodd" d="M152.353 11.994C152.983 12.624 153.648 13.216 154.213 13.909C154.463 14.217 154.699 14.535 154.88 14.892C155.137 15.401 154.904 15.96 154.459 15.99L151.691 15.989C150.977 16.049 150.408 15.755 149.929 15.256C149.546 14.856 149.191 14.431 148.822 14.019C148.671 13.85 148.513 13.691 148.324 13.566C147.946 13.315 147.618 13.392 147.402 13.795C147.182 14.205 147.132 14.659 147.111 15.116C147.081 15.783 146.884 15.958 146.229 15.989C144.83 16.056 143.502 15.839 142.269 15.117C141.181 14.481 140.338 13.582 139.603 12.565C138.174 10.583 137.08 8.406 136.096 6.168C135.875 5.664 136.036 5.393 136.58 5.384C137.483 5.366 138.386 5.367 139.29 5.383C139.657 5.388 139.9 5.603 140.042 5.958C140.53 7.187 141.128 8.356 141.879 9.44C142.079 9.729 142.282 10.017 142.572 10.22C142.893 10.445 143.138 10.371 143.289 10.005C143.385 9.773 143.427 9.523 143.448 9.275C143.52 8.42 143.529 7.567 143.404 6.715C143.327 6.183 143.034 5.839 142.516 5.739C142.251 5.687 142.29 5.587 142.418 5.432C142.641 5.166 142.85 5 143.267 5H146.396C146.888 5.099 146.998 5.326 147.065 5.833L147.068 9.388C147.062 9.584 147.163 10.166 147.509 10.296C147.786 10.389 147.968 10.162 148.134 9.983C148.883 9.17 149.417 8.209 149.895 7.213C150.107 6.776 150.289 6.321 150.466 5.867C150.596 5.53 150.802 5.364 151.173 5.372L154.184 5.374C154.273 5.374 154.363 5.376 154.45 5.391C154.957 5.479 155.096 5.703 154.939 6.21C154.692 7.005 154.212 7.667 153.742 8.333C153.24 9.044 152.703 9.73 152.205 10.445C151.748 11.098 151.784 11.427 152.353 11.994Z" fill="#52789F"/>
<path fill-rule="evenodd" clip-rule="evenodd" d="M173.729 6.293C173.729 6.721 173.729 8.633 173.729 8.633H172V11.495H173.729V20H177.281V11.495H179.665C179.665 11.495 179.888 10.123 179.996 8.622C179.686 8.622 177.295 8.622 177.295 8.622C177.295 8.622 177.295 6.957 177.295 6.665C177.295 6.373 177.682 5.98 178.065 5.98C178.447 5.98 179.253 5.98 180 5.98C180 5.59 180 4.243 180 3C179.003 3 177.869 3 177.369 3C173.641 3 173.729 5.865 173.729 6.293Z" fill="#3B5998"/>
<g clip-path="url(#clip1)">
<path fill-rule="evenodd" clip-rule="evenodd" d="M213.338 3H200.041C199.127 3 198.379 3.748 198.379 4.662V17.958C198.379 18.873 199.127 19.62 200.041 19.62H213.338C214.252 19.62 215 18.873 215 17.958V4.662C215 3.748 214.252 3 213.338 3ZM206.69 7.986C208.518 7.986 210.014 9.482 210.014 11.31C210.014 13.138 208.518 14.634 206.69 14.634C204.861 14.634 203.366 13.138 203.366 11.31C203.366 9.482 204.861 7.986 206.69 7.986ZM200.457 17.958C200.208 17.958 200.041 17.792 200.041 17.543V10.479H201.787C201.703 10.728 201.703 11.061 201.703 11.31C201.703 14.053 203.947 16.296 206.69 16.296C209.432 16.296 211.676 14.053 211.676 11.31C211.676 11.061 211.676 10.728 211.593 10.479H213.338V17.543C213.338 17.792 213.172 17.958 212.922 17.958H200.457ZM213.338 6.739C213.338 6.989 213.172 7.155 212.922 7.155H211.26C211.011 7.155 210.845 6.989 210.845 6.739V5.078C210.845 4.828 211.011 4.662 211.26 4.662H212.922C213.172 4.662 213.338 4.828 213.338 5.078V6.739Z" fill="#ED1C24"/>
<path d="M213.338 3H200.041C199.127 3 198.379 3.748 198.379 4.662V17.958C198.379 18.873 199.127 19.62 200.041 19.62H213.338C214.252 19.62 215 18.873 215 17.958V4.662C215 3.748 214.252 3 213.338 3ZM206.69 7.986C208.518 7.986 210.014 9.482 210.014 11.31C210.014 13.138 208.518 14.634 206.69 14.634C204.861 14.634 203.366 13.138 203.366 11.31C203.366 9.482 204.861 7.986 206.69 7.986ZM200.457 17.958C200.208 17.958 200.041 17.792 200.041 17.543V10.479H201.787C201.703 10.728 201.703 11.061 201.703 11.31C201.703 14.053 203.947 16.296 206.69 16.296C209.432 16.296 211.676 14.053 211.676 11.31C211.676 11.061 211.676 10.728 211.593 10.479H213.338V17.543C213.338 17.792 213.172 17.958 212.922 17.958H200.457ZM213.338 6.739C213.338 6.989 213.172 7.155 212.922 7.155H211.26C211.011 7.155 210.845 6.989 210.845 6.739V5.078C210.845 4.828 211.011 4.662 211.26 4.662H212.922C213.172 4.662 213.338 4.828 213.338 5.078V6.739Z" fill="url(#paint0_linear)"/>
</g>
<path fill-rule="evenodd" clip-rule="evenodd" d="M246.67 20.0221C246.557 20.4901 246.323 20.8841 245.966 21.2011C245.61 21.5191 245.198 21.7021 244.729 21.7501C243.24 21.9161 240.995 22.0001 237.993 22.0001C234.992 22.0001 232.746 21.9161 231.258 21.7501C230.788 21.7021 230.374 21.5191 230.014 21.2011C229.654 20.8841 229.421 20.4901 229.316 20.0221C229.105 19.1311 229 17.7411 229 15.8501C229 13.9901 229.105 12.6001 229.316 11.6781C229.429 11.2091 229.664 10.8161 230.02 10.4981C230.376 10.1801 230.792 9.99311 231.27 9.93811C232.75 9.77911 234.991 9.70011 237.993 9.70011C240.995 9.70011 243.24 9.77911 244.729 9.93811C245.198 9.99311 245.613 10.1801 245.973 10.4981C246.333 10.8161 246.566 11.2091 246.67 11.6781C246.881 12.5681 246.986 13.9591 246.986 15.8501C246.986 17.7091 246.881 19.1001 246.67 20.0221ZM234.134 11.7621H230.348V12.8821H231.622V19.6641H232.836V12.8821H234.134V11.7621ZM237.411 13.7761H236.331V18.2811C236.088 18.6151 235.857 18.7821 235.639 18.7821C235.493 18.7821 235.408 18.6981 235.384 18.5311C235.376 18.5081 235.372 18.3681 235.372 18.1141V13.7761H234.292V18.4361C234.292 18.8251 234.324 19.1151 234.389 19.3061C234.486 19.6001 234.72 19.7471 235.093 19.7471C235.481 19.7471 235.894 19.5051 236.331 19.0201V19.6641H237.411V13.7761ZM241.537 15.5521C241.537 14.9721 241.501 14.5791 241.428 14.3721C241.29 13.9271 241.003 13.7051 240.566 13.7051C240.162 13.7051 239.786 13.9191 239.437 14.3481V11.7621H238.358V19.6641H239.437V19.0921C239.802 19.5291 240.178 19.7471 240.566 19.7471C241.003 19.7471 241.29 19.5291 241.428 19.0921C241.501 18.8771 241.537 18.4801 241.537 17.9001V15.5521ZM245.639 17.6261H244.535C244.535 18.0311 244.526 18.2731 244.51 18.3531C244.454 18.6391 244.292 18.7821 244.025 18.7821C243.653 18.7821 243.467 18.5081 243.467 17.9591V16.9221H245.639V15.6951C245.639 15.0671 245.53 14.6061 245.311 14.3121C244.996 13.9071 244.567 13.7041 244.025 13.7041C243.475 13.7041 243.042 13.9071 242.726 14.3121C242.5 14.6061 242.387 15.0671 242.387 15.6951V17.7571C242.387 18.3851 242.504 18.8451 242.738 19.1391C243.054 19.5441 243.491 19.7471 244.049 19.7471C244.631 19.7471 245.069 19.5371 245.36 19.1151C245.506 18.9011 245.591 18.6861 245.615 18.4721C245.631 18.4001 245.639 18.1701 245.639 17.7811V17.6261ZM243.467 15.4801C243.467 14.9401 243.649 14.6701 244.013 14.6701C244.377 14.6701 244.559 14.9401 244.559 15.4801V16.0281H243.467V15.4801ZM239.983 18.7821C239.797 18.7821 239.615 18.6941 239.437 18.5201V14.9321C239.615 14.7571 239.797 14.6701 239.983 14.6701C240.299 14.6701 240.457 14.9361 240.457 15.4681V17.9831C240.457 18.5161 240.299 18.7821 239.983 18.7821ZM242.326 7.97111C241.897 8.46411 241.48 8.71011 241.076 8.71011C240.704 8.71011 240.465 8.56311 240.36 8.26911C240.295 8.07811 240.262 7.78111 240.262 7.37511V2.67911H241.367V7.05311C241.367 7.31511 241.371 7.45511 241.379 7.47111C241.403 7.64511 241.488 7.73311 241.634 7.73311C241.853 7.73311 242.083 7.56211 242.326 7.22011V2.67911H243.43V8.62711H242.326V7.97111ZM237.738 8.71011C237.196 8.71011 236.771 8.50811 236.464 8.10211C236.237 7.80011 236.124 7.33211 236.124 6.69611V4.61011C236.124 3.97411 236.238 3.50911 236.464 3.21511C236.771 2.81011 237.196 2.60811 237.738 2.60811C238.297 2.60811 238.725 2.81011 239.025 3.21511C239.251 3.50911 239.365 3.97411 239.365 4.61011V6.69611C239.365 7.34011 239.251 7.80811 239.025 8.10211C238.725 8.50811 238.297 8.71011 237.738 8.71011ZM238.26 4.39511C238.26 3.84711 238.086 3.57311 237.738 3.57311C237.39 3.57311 237.217 3.84711 237.217 4.39511V6.89811C237.217 7.45511 237.39 7.73311 237.738 7.73311C238.086 7.73311 238.26 7.45511 238.26 6.89811V4.39511ZM234.644 8.62711H233.43V5.39711C233.317 4.80911 233.07 3.96611 232.69 2.87011C232.391 2.05111 232.128 1.30811 231.901 0.641113H233.188L234.049 3.77611L234.874 0.641113H236.112L234.644 5.39711V8.62711Z" fill="#ED1C24"/>
<path d="M269 11.8565C271.872 11.8565 274.2 9.42616 274.2 6.42821C274.2 3.43026 271.872 1 269 1C266.128 1 263.8 3.4303 263.8 6.42825C263.804 9.42463 266.13 11.8528 269 11.8565ZM269 3.50534C270.546 3.50534 271.8 4.81395 271.8 6.42825C271.8 8.04254 270.546 9.35115 269 9.35115C267.454 9.35115 266.2 8.04254 266.2 6.42825C266.2 4.81395 267.454 3.50534 269 3.50534Z" fill="#FF9800"/>
<path d="M274.093 14.4286C274.659 14.04 274.999 13.3812 275 12.6749C275.008 12.0886 274.691 11.5503 274.186 11.2927C273.668 11.0224 273.047 11.0833 272.586 11.4497C270.449 13.076 267.551 13.076 265.414 11.4497C264.953 11.0852 264.333 11.0244 263.814 11.2927C263.31 11.5502 262.993 12.088 263 12.674C263.001 13.3803 263.342 14.0389 263.907 14.4277C264.631 14.9308 265.42 15.3244 266.25 15.5969C266.391 15.6426 266.537 15.6849 266.686 15.7239L264.269 18.1916C263.635 18.834 263.619 19.8913 264.235 20.5534C264.85 21.2154 265.863 21.2315 266.497 20.5891C266.51 20.5757 266.523 20.5621 266.536 20.5483L269 17.8859L271.469 20.5533C272.084 21.2158 273.097 21.2327 273.731 20.5909C274.366 19.9491 274.382 18.8917 273.767 18.2291C273.754 18.2153 273.741 18.2016 273.728 18.1882L271.314 15.723C271.464 15.6829 271.61 15.6403 271.752 15.5952C272.581 15.3238 273.37 14.931 274.093 14.4286Z" fill="#FF9800"/>
<defs>
<linearGradient id="paint0_linear" x1="198.379" y1="17.5362" x2="206.436" y2="2.99959" gradientUnits="userSpaceOnUse">
<stop stop-color="#FEC964"/>
<stop offset="0.49" stop-color="#D12D88"/>
<stop offset="1" stop-color="#861BFF"/>
</linearGradient>
<clipPath id="clip0">
<rect width="15" height="15" fill="white" transform="translate(54 4)"/>
</clipPath>
<clipPath id="clip1">
<rect width="17" height="17" fill="white" transform="translate(198 3)"/>
</clipPath>
</defs>
</svg>
